<svg viewBox="0 0 52 52" xml:space="preserve" xmlns="http://www.w3.org/2000/svg" enable-background="new 0 0 52 52" width="30px" height="30px"><path d="M27.74 18.616c.032.622-.063 1.593-.675 1.965-.873.53-1.41-.465-1.472-1.198-.054-.636-.302-1.722.41-2.104.378-.203.993-.042 1.31.287.245.254.218.56.224 1.01.017 1.446 2.267 1.45 2.25 0-.01-.878-.075-1.906-.76-2.544-.7-.65-1.852-1.201-2.822-1.16-.968.043-1.784.67-2.362 1.409-.713.912-.588 2.006-.5 3.102.082 1.023.202 1.95 1.019 2.65.67.576 1.622 1.052 2.52.977 2.089-.176 3.206-2.529 3.107-4.394-.076-1.44-2.326-1.45-2.25 0zM27.242 26.378c2.586.102 4.7 1.782 4.348 4.494l.557-.971c-1.152.506-3.299.05-4.569.05-1.65 0-3.737.346-5.341-.002-.672-.145-1.58 1.377-.234-1.146.323-.604.91-1.158 1.43-1.586 1.501-1.23 3.023-1.033 4.853-1.073 1.446-.031 1.45-2.281 0-2.25-1.75.039-3.614-.158-5.174.766-1.378.816-2.717 2.15-3.356 3.636-.383.892-.759 2.589-.018 3.423 1.02 1.149 4.107.48 5.412.481l3.885.001c1.091 0 2.615.245 3.648-.099 1.371-.456 1.201-1.509 1.096-2.777-.27-3.246-3.439-5.074-6.537-5.197-1.448-.058-1.446 2.192 0 2.25zM14.952 45.993l22.334-.11c1.447-.006 1.45-2.256 0-2.25l-22.334.11c-1.447.007-1.45 2.257 0 2.25z" fill="#45b0d0" class="fill-231f20"></path><path d="m18.79 12.433 10.573-.058c1.77-.01 5.314.057 6.295 2.048.465.947.023 4.595.025 5.662.004 3.145-.007 6.29-.079 9.434-.048 2.097.363 5.499-1.896 6.801-1.048.605-4.234.002-5.372.003-.482 0-.968.348-1.085.826a57.529 57.529 0 0 1-2.192 7.008l1.88-.497c-1.41-1.727-1.533-6.225-3.44-7.484-2.243-1.48-4.492.95-6.461-1.438-2.135-2.587-.863-9.876-.871-13.272-.005-1.967-.19-4.031-.015-5.996.264-2.967.236-2.64 3.116-3.278 1.413-.314.815-2.483-.598-2.17-2.812.624-4.26.585-4.772 3.45-.551 3.075.016 6.849.024 9.993.008 3.305-.184 6.694.024 9.993.124 1.978.364 3.863 2.447 4.64 2.597.966 4.694-.889 6.319 2.02 1.047 1.876 1.214 3.392 2.636 5.133.59.721 1.61.208 1.88-.496.387-1.008 1.086-4.453 1.756-5.223 1.109-1.273 2.272-.91 3.829-.961 1.408-.046 3.185.084 4.199-1.186.98-1.228.715-3.638.762-5.037.117-3.457.153-6.917.16-10.376.006-3.62 1.503-9.581-2.584-11.46-1.478-.678-3.471-.393-5.025-.392-3.845.002-7.69.042-11.536.063-1.447.008-1.45 2.258 0 2.25z" fill="#45b0d0" class="fill-231f20"></path><path d="M34.697 10.776c.36-2.781 3.627-2.071 5.758-2.087 1.381-.01 6.448-.84 7.495-.057 2.244 1.68.993 9.07.966 11.674-.027 2.683.961 5.582-2.184 6.507-.89.262-1.584-.274-2.536.249-1.862 1.022-2.422 4.468-3.135 6.258h2.17c-1.37-3.819-2.216-6.823-6.713-6.2-1.428.198-.82 2.366.598 2.17 2.755-.382 3.29 2.802 3.945 4.629.392 1.092 1.758 1.035 2.17 0 .745-1.872 1.345-4.09 3.501-4.856.82-.291 1.969.222 2.809-.28.765-.458 1.075-1.094 1.373-1.938.988-2.805.277-7.254.261-10.182-.01-2.08.652-6.619-.337-8.53-1.756-3.393-8.292-1.71-11.32-1.687-5.145.039-6.417-.724-7.07 4.33-.186 1.432 2.066 1.419 2.25 0zM18.96 11.023c.11-2.276-.615-3.559-2.833-4.183-2.974-.838-8.915-1.146-11.987-.443C2.116 6.86 1.263 7.819.952 9.838.123 15.222.88 21.346.855 26.793c-.002.538.36.9.826 1.084.528.21 1.032.43 1.583.548 2.35.507 2.467-.855 3.834 1.934.754 1.536.811 2.883 1.628 4.302.39.676 1.587.79 1.943 0 .526-1.164 1.753-5.847 3.359-5.526 1.414.282 2.019-1.887.598-2.17-4.478-.893-4.474 3.403-5.9 6.56h1.943c-1.057-1.836.197-4.938-1.49-6.53-2.15-2.027-5.014.706-6.061-2.955-.514-1.795.02-4.551.029-6.424.009-1.87-.502-4.638.03-6.424.921-3.095 3.483-2.574 6.161-2.465 1.535.063 7.516-.654 7.371 2.296-.07 1.447 2.18 1.443 2.25 0z" fill="#45b0d0" class="fill-231f20"></path></svg>