<svg viewBox="0 0 512 512" width="100px" height="100px" xml:space="preserve" xmlns="http://www.w3.org/2000/svg" enable-background="new 0 0 512 512"><path d="M171.167 311.294c12.326-12.325 20.277-29.109 21.186-47.739H47.203c.908 18.63 8.832 35.414 21.186 47.739 13.148 13.148 31.324 21.3 51.375 21.3 20.078 0 38.254-8.152 51.403-21.3m-94.088-55.01h84.915l-42.23-112.746-42.685 112.746zm357.549 55.01c12.354-12.325 20.277-29.109 21.187-47.739H310.693c.908 18.63 8.832 35.414 21.186 47.739 13.149 13.148 31.325 21.3 51.375 21.3s38.225-8.152 51.374-21.3zm-94.059-55.01h84.914l-42.259-112.746-42.655 112.746zM232.282 389.732h42.798l-.852-5.51a2.529 2.529 0 0 1 0-1.135L253.61 235.779l-20.447 147.223c.028.229.056.454.056.683l-.937 6.047zm12.383-334.97a79.61 79.61 0 0 1 18.033 0V41.5h-18.033v13.262zM228.05 397.003a3.623 3.623 0 0 1-3.635-3.634c.284-2.017.567-4.035.852-6.051H163.81v38.624h179.77v-38.624h-61.457l.795 5.568.028.396v.086a3.623 3.623 0 0 1-3.635 3.634H228.05zM256.081 78.93c-.597-.625-1.448-.994-2.385-.994s-1.789.369-2.414.967a3.402 3.402 0 0 0-.994 2.44 3.39 3.39 0 0 0 3.408 3.38c.937 0 1.789-.369 2.385-.965a3.42 3.42 0 0 0 1.022-2.415c0-.966-.397-1.817-1.022-2.413zm-2.386-7.981c2.868 0 5.452 1.164 7.326 3.039 1.903 1.875 3.04 4.487 3.04 7.354a10.19 10.19 0 0 1-3.04 7.3l-.057.057a10.268 10.268 0 0 1-7.27 3.011 10.387 10.387 0 0 1-7.355-3.04 10.317 10.317 0 0 1-3.04-7.327 10.32 10.32 0 0 1 3.04-7.326l.113-.114c1.904-1.846 4.432-2.954 7.243-2.954zm54.328 64.723c.625-.625.994-1.479.994-2.415s-.369-1.788-.965-2.385a3.403 3.403 0 0 0-2.415-.995c-.966 0-1.817.371-2.414.967-.625.625-.994 1.477-.994 2.413s.369 1.79.994 2.415c.625.596 1.477.992 2.414.992s1.789-.396 2.386-.992zm7.981-2.415c0 2.869-1.164 5.481-3.039 7.356-1.875 1.873-4.459 3.039-7.327 3.039s-5.481-1.166-7.355-3.039a10.388 10.388 0 0 1-3.039-7.356c0-2.839 1.164-5.424 3.039-7.326l.057-.058a10.374 10.374 0 0 1 7.299-2.981c2.84 0 5.425 1.165 7.299 3.039l.057.056a10.27 10.27 0 0 1 3.009 7.27zm-64.723 54.356c.625.598 1.477.996 2.414.996s1.789-.398 2.385-.996a3.41 3.41 0 0 0 1.022-2.412 3.41 3.41 0 0 0-1.022-2.414c-.597-.598-1.448-.996-2.385-.996s-1.789.398-2.414.996a3.386 3.386 0 0 0-.994 2.414c.001.938.398 1.788.994 2.412zm2.414 7.981a10.386 10.386 0 0 1-7.355-3.039 10.383 10.383 0 0 1-3.04-7.354c0-2.869 1.165-5.454 3.04-7.328l.113-.113c1.903-1.818 4.431-2.953 7.242-2.953 2.868 0 5.452 1.192 7.326 3.039a10.316 10.316 0 0 1 3.04 7.355c0 2.839-1.137 5.452-3.04 7.326l-.057.057c-1.873 1.846-4.457 3.01-7.269 3.01zm-54.357-64.75c-.596.625-.993 1.477-.993 2.413s.397 1.79.993 2.415c.625.596 1.478.992 2.415.992a3.389 3.389 0 0 0 3.408-3.407 3.28 3.28 0 0 0-.994-2.385c-.625-.624-1.477-.995-2.414-.995s-1.789.371-2.415.967zM63.419 283.434c-.597-1.902.511-3.948 2.442-4.515 1.903-.569 3.919.538 4.515 2.442 0 .028 3.294 13.604 17.268 22.122 1.704 1.052 2.244 3.296 1.192 4.999-1.022 1.704-3.266 2.243-4.97 1.191-16.528-10.079-20.447-26.183-20.447-26.239zm156.282-164.29c-1.591-1.052-2.016-3.237-.937-4.829 1.05-1.59 3.238-2.016 4.827-.938l30.359 20.334 26.752-12.978a3.504 3.504 0 0 1 4.657 1.62c.824 1.731.085 3.832-1.646 4.656L255.2 140.868a3.472 3.472 0 0 1-3.437-.256l-32.062-21.468zm160.059 10.479V96.082a3.492 3.492 0 0 1 3.494-3.493 3.49 3.49 0 0 1 3.492 3.493v33.541h27.292a3.641 3.641 0 0 1 3.636 3.634 3.625 3.625 0 0 1-3.636 3.636h-88.407c-.908 18.46-8.775 35.074-21.016 47.313-13.035 13.036-31.041 21.101-50.92 21.101-19.908 0-37.913-8.064-50.948-21.101-12.212-12.239-20.079-28.854-20.988-47.313H93.323a3.624 3.624 0 0 1-3.635-3.636 3.642 3.642 0 0 1 3.635-3.634h22.976V96.082c0-1.93 1.562-3.493 3.464-3.493a3.491 3.491 0 0 1 3.493 3.493v33.541h58.502c.909-18.432 8.775-35.046 20.988-47.285l.17-.199c10.365-10.28 23.77-17.438 38.822-19.908l.085-.029h.085l.085-.027h.114l.085-.028h.085l.369-.086h.113c3.437-.681 17.75-1.021 18.29-.454a71.754 71.754 0 0 1 43.564 20.732c12.24 12.239 20.107 28.854 21.016 47.285h54.131zm-232.648 320.97a3.49 3.49 0 0 1-3.494-3.493 3.509 3.509 0 0 1 3.494-3.492h219.442c1.902 0 3.465 1.59 3.465 3.492 0 1.932-1.563 3.493-3.465 3.493H147.112zm110.587 19.908c-1.931 0-3.493-1.563-3.493-3.464a3.49 3.49 0 0 1 3.493-3.494h181.757c1.902 0 3.493 1.562 3.493 3.494 0 1.901-1.591 3.464-3.493 3.464H257.699zm200.359 0c-1.931 0-3.493-1.563-3.493-3.464a3.49 3.49 0 0 1 3.493-3.494h22.72a3.49 3.49 0 0 1 3.493 3.494c0 1.901-1.562 3.464-3.493 3.464h-22.72zm-364.536-.597c-1.903 0-3.493-1.563-3.493-3.492 0-1.932 1.59-3.494 3.493-3.494h86.135a3.491 3.491 0 0 1 3.493 3.494 3.49 3.49 0 0 1-3.493 3.492H93.522zm366.892-137.197c-3.152 3.151 1.762 8.123 5.084 4.799a94.574 94.574 0 0 0 4.771-5.424c2.981-3.976-2.841-7.781-5.396-4.402a106.253 106.253 0 0 1-4.459 5.027zm-20.816 17.125c-3.834 2.301-.313 8.293 3.721 5.906 1.932-1.191 4.175-2.669 5.964-4.032 3.777-2.839-.512-8.35-4.118-5.65-1.705 1.305-3.722 2.64-5.567 3.776zm-24.481 11.303c-4.885 1.959-1.562 8.122 2.103 6.646 2.129-.568 4.771-1.563 6.815-2.387 4.316-1.703 1.676-8.179-2.556-6.475-2.045.739-4.259 1.648-6.362 2.216zm-26.525 4.742c-3.521 0-5.225 5.937 0 6.958 2.358 0 5.17-.313 7.527-.567 5.225-1.051 3.037-7.695-.797-6.93a87.979 87.979 0 0 1-6.73.539zm-26.865-2.044c-4.544-.909-5.879 5.935-1.392 6.815 2.386.455 4.687.908 7.1 1.249 4.316.853 5.567-5.992.938-6.929-2.245-.284-4.432-.737-6.646-1.135zm-25.503-8.775c-4.884-1.96-6.73 4.799-3.067 6.249 2.188 1.049 4.318 2.044 6.561 2.98 4.373 1.76 6.816-4.771 2.67-6.447a121.465 121.465 0 0 1-6.164-2.782zm-22.408-14.939c-2.981-2.981-7.979 1.874-4.827 5.027 1.676 1.618 3.947 3.35 5.851 4.799 3.72 2.783 7.837-2.84 4.23-5.565a95.91 95.91 0 0 1-5.254-4.261zm-17.976-20.078c-2.727-3.636-8.207-.142-5.736 3.947 1.334 1.988 2.783 3.92 4.26 5.794 2.697 3.606 8.264-.823 5.48-4.289-1.364-1.79-2.755-3.606-4.004-5.452zm189.822-12.184c1.902-4.715-4.8-6.759-6.305-2.954a149.176 149.176 0 0 1-3.067 6.022c-2.244 3.72 3.606 7.523 6.106 3.35 1.165-2.1 2.272-4.23 3.266-6.418zm-288.737 24.878c-3.124 3.123 1.761 8.095 5.111 4.743 1.619-1.732 3.267-3.521 4.743-5.368 3.01-4.004-2.84-7.81-5.368-4.458-1.447 1.732-2.925 3.436-4.486 5.083zm-20.817 17.097c-3.834 2.301-.284 8.293 3.72 5.906a96.592 96.592 0 0 0 5.992-4.032c3.749-2.839-.511-8.35-4.117-5.65-1.818 1.305-3.692 2.612-5.595 3.776zm-24.452 11.303c-4.885 1.959-1.563 8.122 2.102 6.646 2.158-.568 4.714-1.563 6.815-2.387 4.316-1.703 1.647-8.179-2.556-6.475-1.873.768-4.401 1.677-6.361 2.216zm-26.525 4.742c-3.522 0-5.254 5.937-.028 6.958 2.357 0 5.197-.313 7.554-.567 5.226-1.051 3.01-7.695-.795-6.93a89.2 89.2 0 0 1-6.731.539zm-26.895-2.072c-4.543-.908-5.878 5.963-1.391 6.844 2.357.482 4.714.908 7.1 1.249 4.346.853 5.595-5.992.937-6.929-2.215-.285-4.459-.709-6.646-1.164zm-25.474-8.747c-4.885-1.96-6.73 4.799-3.067 6.249a136.754 136.754 0 0 0 6.531 2.98c4.403 1.76 6.816-4.771 2.67-6.447a133.176 133.176 0 0 1-6.134-2.782zm-22.435-14.939c-2.953-2.981-7.952 1.874-4.827 5.027 1.675 1.618 4.004 3.38 5.849 4.799 3.721 2.783 7.868-2.84 4.232-5.565-1.818-1.364-3.521-2.814-5.254-4.261zM32.35 320.041c-2.698-3.636-8.179-.142-5.737 3.947 1.307 1.932 2.812 4.004 4.289 5.794 2.698 3.606 8.264-.823 5.481-4.289-1.364-1.817-2.756-3.577-4.033-5.452zm189.822-12.184c1.903-4.715-4.771-6.759-6.305-2.954a99.623 99.623 0 0 1-3.067 6.022c-2.215 3.72 3.607 7.523 6.135 3.35 1.136-2.1 2.243-4.23 3.237-6.418zm-30.814-174.6c0-2.839 1.165-5.424 3.067-7.326l.056-.058a10.31 10.31 0 0 1 7.271-2.981c2.84 0 5.453 1.165 7.327 3.039l.057.056c1.846 1.875 3.01 4.459 3.01 7.271a10.32 10.32 0 0 1-3.039 7.328l-.085.056c-1.875 1.846-4.43 3.012-7.27 3.012-2.868 0-5.453-1.166-7.356-3.039-1.845-1.877-3.038-4.489-3.038-7.358z" fill-rule="evenodd" clip-rule="evenodd" fill="#45b0d0" class="fill-000000"></path></svg>